<?xml version="1.0" encoding="UTF-8" standalone="no"?>
<svg width="103px" height="119px" viewBox="0 0 103 119" version="1.1" xmlns="http://www.w3.org/2000/svg" xmlns:xlink="http://www.w3.org/1999/xlink" xmlns:sketch="http://www.bohemiancoding.com/sketch/ns">
    <!-- Generator: Sketch 3.5.1 (25234) - http://www.bohemiancoding.com/sketch -->
    <title>benefit-parents</title>
    <desc>Created with Sketch.</desc>
    <defs>
        <path id="path-1" d="M0,0.854 L103,0.854 L103,119 L0,119 L0,0.854 Z"></path>
    </defs>
    <g id="Page-2" stroke="none" stroke-width="1" fill="none" fill-rule="evenodd" sketch:type="MSPage">
        <g id="03-about-jobs" sketch:type="MSArtboardGroup" transform="translate(-352.000000, -1187.000000)">
            <g id="benefits-+-Page-1-+-Frequent-parties-+-Page-1" sketch:type="MSLayerGroup" transform="translate(310.000000, 449.000000)">
                <g id="benefits">
                    <g id="baby" transform="translate(22.000000, 707.000000)">
                        <g id="Group-2">
                            <g id="benefit-parents" transform="translate(20.000000, 31.000000)">
                                <path d="M28.1,29.1 C30.696,29.1 32.8,31.204 32.8,33.8 C32.8,36.396 30.696,38.5 28.1,38.5 C25.504,38.5 23.4,36.396 23.4,33.8 C23.4,31.204 25.504,29.1 28.1,29.1" id="Fill-1" fill="#FF9D8A" sketch:type="MSShapeGroup"></path>
                                <path d="M73.3,29.1 C75.896,29.1 78,31.204 78,33.8 C78,36.396 75.896,38.5 73.3,38.5 C70.704,38.5 68.6,36.396 68.6,33.8 C68.6,31.204 70.704,29.1 73.3,29.1" id="Fill-3" fill="#FF9D8A" sketch:type="MSShapeGroup"></path>
                                <path d="M50.7,59.1 L50.7,59.1 C38.3,59.1 28.1,49 28.1,36.5 L28.1,31 C28.1,18.6 38.3,8.4 50.7,8.4 C63.2,8.5 73.3,18.7 73.3,31.1 L73.3,36.6 C73.3,49 63.2,59.1 50.7,59.1" id="Fill-5" fill="#FFB5A1" sketch:type="MSShapeGroup"></path>
                                <path d="M50.8,117.5 L50.8,117.5 C38.5,117.5 28.4,107.4 28.4,95.1 L28.4,65.9 C28.4,53.6 38.5,43.5 50.8,43.5 C63.1,43.5 73.2,53.6 73.2,65.9 L73.2,95 C73.2,107.4 63.1,117.5 50.8,117.5" id="Fill-7" fill="#FFB5A1" sketch:type="MSShapeGroup"></path>
                                <path d="M80.1,81.5 L80.1,89.7 C80.1,105.8 66.9,119 50.8,119 C34.7,119 21.5,105.8 21.5,89.7 L21.5,81.5 C21.5,80 22.7,78.8 24.2,78.8 L77.6,78.8 C78.9,78.8 80.1,80 80.1,81.5" id="Fill-9" fill="#FFFFFF" sketch:type="MSShapeGroup"></path>
                                <mask id="mask-2" sketch:name="Clip 12" fill="white">
                                    <use xlink:href="#path-1"></use>
                                </mask>
                                <g id="Clip-12"></g>
                                <path d="M21.4,86.3 L37.5,86.3 L37.5,94 L21.4,94 L21.4,86.3 Z" id="Fill-11" fill="#DBDBDB" sketch:type="MSShapeGroup" mask="url(#mask-2)"></path>
                                <path d="M63.9,86.3 L80,86.3 L80,94 L63.9,94 L63.9,86.3 Z" id="Fill-13" fill="#DBDBDB" sketch:type="MSShapeGroup" mask="url(#mask-2)"></path>
                                <path d="M39.4,26.5 C40.836,26.5 42,27.664 42,29.1 C42,30.536 40.836,31.7 39.4,31.7 C37.964,31.7 36.8,30.536 36.8,29.1 C36.8,27.664 37.964,26.5 39.4,26.5" id="Fill-14" fill="#EB9486" sketch:type="MSShapeGroup" mask="url(#mask-2)"></path>
                                <path d="M62.1,26.5 C63.536,26.5 64.7,27.664 64.7,29.1 C64.7,30.536 63.536,31.7 62.1,31.7 C60.664,31.7 59.5,30.536 59.5,29.1 C59.5,27.664 60.664,26.5 62.1,26.5" id="Fill-15" fill="#EB9486" sketch:type="MSShapeGroup" mask="url(#mask-2)"></path>
                                <path d="M94.8,66.9 L8.2,66.9 C3.7,66.9 0,63.2 0,58.7 C0,54.2 3.7,50.5 8.2,50.5 L94.8,50.5 C99.3,50.5 103,54.2 103,58.7 C103,63.3 99.3,66.9 94.8,66.9" id="Fill-16" fill="#FFB5A1" sketch:type="MSShapeGroup" mask="url(#mask-2)"></path>
                                <path d="M47.3,25.7 L54.1,25.7 L54.1,32.6 L47.3,32.6 L47.3,25.7 Z" id="Fill-17" fill="#FF9D8A" sketch:type="MSShapeGroup" mask="url(#mask-2)"></path>
                                <path d="M61.4,37.3 C61.4,43.2 56.6,47.9 50.8,47.9 C45,47.9 40.2,43.1 40.2,37.3" id="Fill-18" fill="#B2473B" sketch:type="MSShapeGroup" mask="url(#mask-2)"></path>
                                <path d="M57,45.9 C55.6,44.1 53.3,42.9 50.8,42.9 C48.3,42.9 46.1,44.1 44.6,45.9 C46.3,47.1 48.5,47.9 50.8,47.9 C53.1,47.9 55.2,47.2 57,45.9" id="Fill-19" fill="#CC4F46" sketch:type="MSShapeGroup" mask="url(#mask-2)"></path>
                                <path d="M51.7,11.3 C51.7,8.1 54.4,5.5 57.7,5.6 C58.9,5.7 60,6.2 60.8,7 C61.9,8 62.5,8.9 62.8,9.8 C63,10.3 63.8,10.2 63.8,9.7 C63.9,8.9 63.9,8.1 63.8,7.3 C63.3,3.9 60.5,1.3 57.1,0.9 C52.5,0.4 48.7,4 48.7,8.4 C48.7,10.7 49.7,12.7 51.3,14.1 C51.7,14.5 52.4,14 52.1,13.5 C51.9,12.9 51.7,12.2 51.7,11.3" id="Fill-20" fill="#FFD72E" sketch:type="MSShapeGroup" mask="url(#mask-2)"></path>
                                <path d="M11.9,118.5 L32.9,118.5 C37.7,118.5 41.6,114.6 41.6,109.8 C41.6,105 37.7,101.1 32.9,101.1 L11.9,101.1 C7.1,101.1 3.2,105 3.2,109.8 C3.2,114.6 7.1,118.5 11.9,118.5" id="Fill-21" fill="#FFB5A1" sketch:type="MSShapeGroup" mask="url(#mask-2)"></path>
                                <path d="M11.8,118.5 L11.8,118.5 C17.1,118.5 21.4,114.2 21.4,108.9 L21.4,98.9 C21.4,93.6 17.1,89.3 11.8,89.3 C6.5,89.3 2.2,93.6 2.2,98.9 L2.2,108.9 C2.1,114.2 6.5,118.5 11.8,118.5" id="Fill-22" fill="#FF9D8A" sketch:type="MSShapeGroup" mask="url(#mask-2)"></path>
                                <path d="M89.7,118.5 L68.7,118.5 C63.9,118.5 60,114.6 60,109.8 C60,105 63.9,101.1 68.7,101.1 L89.7,101.1 C94.5,101.1 98.4,105 98.4,109.8 C98.4,114.6 94.5,118.5 89.7,118.5" id="Fill-23" fill="#FFB5A1" sketch:type="MSShapeGroup" mask="url(#mask-2)"></path>
                                <path d="M89.9,118.5 L89.9,118.5 C84.6,118.5 80.3,114.2 80.3,108.9 L80.3,98.9 C80.3,93.6 84.6,89.3 89.9,89.3 C95.2,89.3 99.5,93.6 99.5,98.9 L99.5,108.9 C99.5,114.2 95.2,118.5 89.9,118.5" id="Fill-24" fill="#FF9D8A" sketch:type="MSShapeGroup" mask="url(#mask-2)"></path>
                            </g>
                        </g>
                    </g>
                </g>
            </g>
        </g>
    </g>
</svg>