<?xml version="1.0" encoding="UTF-8" standalone="no"?>
<svg width="717px" height="357px" viewBox="0 0 717 357" version="1.1" xmlns="http://www.w3.org/2000/svg" xmlns:xlink="http://www.w3.org/1999/xlink" xmlns:sketch="http://www.bohemiancoding.com/sketch/ns">
    <!-- Generator: Sketch 3.4.2 (15857) - http://www.bohemiancoding.com/sketch -->
    <title>accessible-image</title>
    <desc>Created with Sketch.</desc>
    <defs></defs>
    <g id="Page-1" stroke="none" stroke-width="1" fill="none" fill-rule="evenodd" sketch:type="MSPage">
        <g id="about-manifesto" sketch:type="MSArtboardGroup" transform="translate(-362.000000, -1934.000000)">
            <g id="2" sketch:type="MSLayerGroup" transform="translate(183.000000, 1409.000000)">
                <g id="Page-1" sketch:type="MSShapeGroup">
                    <g id="Group-8" transform="translate(179.000000, 525.000000)">
                        <g id="accessible-image">
                            <path d="M298.2264,114.029815 C313.7554,99.2334437 314.0124,74.9933454 298.8004,59.8876623 C283.5884,44.7829519 258.6674,44.5329738 243.1374,59.330318 C230.2804,71.5811923 227.9034,90.3003727 236.0964,104.953761 L230.3004,125.156274 L251.1854,119.936886 C266.0784,128.206591 285.3694,126.28069 298.2264,114.029815" id="Fill-2" fill="#FFD180"></path>
                            <path d="M193.9601,37.0605727 C197.7711,20.8051847 187.3131,4.62274754 170.6011,0.915873224 C153.8891,-2.79100109 137.2511,7.3812612 133.4401,23.6366492 C130.2851,37.0955891 136.9171,50.4961683 148.7761,56.8156546 L153.7901,72.6187475 L165.3521,60.4933486 C178.8551,59.7988568 190.8051,50.5195126 193.9601,37.0605727" id="Fill-4" fill="#FFD180"></path>
                            <path d="M25.6234,31.6555978 C2.6524,43.5572809 -6.0496,71.3174995 6.1864,93.6608765 C16.3174,112.159259 37.6234,121.130264 57.6924,116.919543 L79.5954,130.21021 L80.4774,105.115128 C95.2674,91.2641989 99.5014,69.0599148 89.3704,50.5615322 C77.1344,28.2181552 48.5944,19.7539148 25.6234,31.6555978" id="Fill-6" fill="#FFD180"></path>
                            <g id="Group-72" transform="translate(76.000000, 0.972678)">
                                <path d="M629.0389,113.965132 C644.5679,99.1687607 644.8249,74.9286623 629.6129,59.8229792 C614.4009,44.7182689 589.4799,44.4682907 573.9499,59.265635 C561.0929,71.5165093 558.7159,90.2356896 566.9089,104.889078 L561.1129,125.091591 L581.9979,119.872203 C596.8909,128.141908 616.1819,126.216007 629.0389,113.965132" id="Fill-10" fill="#FFD180"></path>
                                <path d="M524.7726,36.9958896 C528.5836,20.7405016 518.1256,4.55806448 501.4136,0.851190164 C484.7016,-2.85568415 468.0636,7.31657814 464.2526,23.5719661 C461.0976,37.030906 467.7296,50.4314852 479.5886,56.7509716 L484.6026,72.5540645 L496.1646,60.4286656 C509.6676,59.7341738 521.6176,50.4548295 524.7726,36.9958896" id="Fill-12" fill="#FFD180"></path>
                                <path d="M356.4359,31.5909148 C333.4659,43.4925978 324.7629,71.2528164 336.9989,93.5961934 C347.1299,112.094576 368.4359,121.065581 388.5049,116.85486 L410.4079,130.145527 L411.2899,105.050445 C426.0799,91.1995158 430.3139,68.9952317 420.1829,50.4968492 C407.9469,28.1534721 379.4069,19.6892317 356.4359,31.5909148" id="Fill-14" fill="#FFD180"></path>
                                <path d="M410.7435,355.339834 L410.7435,339.135025 C410.7435,298.964413 444.2235,266.399167 485.5225,266.399167 L485.5225,266.399167 C526.8225,266.399167 560.3015,298.964413 560.3015,339.135025 L560.3015,355.339834" id="Fill-16" fill="#14D4F4"></path>
                                <path d="M514.2944,307.990287 L514.2944,275.054451 C514.2944,259.91667 501.2214,247.531566 485.2424,247.531566 C469.2634,247.531566 456.1904,259.91667 456.1904,275.054451 L456.1904,301.520036" id="Stroke-18" stroke="#424242" stroke-width="8.315"></path>
                                <path d="M529.5548,317.338108 C529.5548,325.535835 522.7228,332.181168 514.2948,332.181168 C505.8668,332.181168 499.0338,325.535835 499.0338,317.338108 C499.0338,309.140381 505.8668,302.495048 514.2948,302.495048 C522.7228,302.495048 529.5548,309.140381 529.5548,317.338108" id="Fill-20" fill="#F0F0F0"></path>
                                <path d="M437.99,332.971955 L437.99,319.643354 C437.99,309.865999 446.139,301.939649 456.19,301.939649 L456.19,301.939649 C466.242,301.939649 474.391,309.865999 474.391,319.643354 L474.391,332.971955" id="Stroke-22" stroke="#424242" stroke-width="8.315"></path>
                                <path d="M521.6258,317.338108 C521.6258,321.27648 518.3438,324.468808 514.2948,324.468808 C510.2458,324.468808 506.9628,321.27648 506.9628,317.338108 C506.9628,313.399737 510.2458,310.207409 514.2948,310.207409 C518.3438,310.207409 521.6258,313.399737 521.6258,317.338108 L521.6258,317.338108 Z" id="Stroke-24" stroke="#424242" stroke-width="3.519"></path>
                                <path d="M474.3907,328.053319 L474.3907,336.57592 C474.3907,342.029723 469.8457,346.450543 464.2387,346.450543" id="Stroke-26" stroke="#424242" stroke-width="8.315" stroke-linecap="round" stroke-linejoin="round"></path>
                                <path d="M448.1416,346.450446 C442.5346,346.450446 437.9896,342.029626 437.9896,336.575823 L437.9896,328.053222" id="Stroke-28" stroke="#424242" stroke-width="8.315" stroke-linecap="round" stroke-linejoin="round"></path>
                                <path d="M36.654,155.872849 C16.902,155.872849 0.74,171.592292 0.74,190.805592 L0.74,196.570652 L0.74,216.701188 L0.74,292.331734 L0.741,292.331734 C20.493,292.331734 36.654,276.612292 36.654,257.398991 L36.654,251.633931 L36.654,231.503396 L36.654,155.872849 L36.654,155.872849 Z" id="Fill-30" fill="#4C241C"></path>
                                <path d="M79.7899,242.41178 L79.7899,242.41178 C46.6789,242.41178 19.5879,216.060972 19.5879,183.854644 L19.5879,169.03201 C19.5879,136.825682 46.6789,110.474873 79.7899,110.474873 L79.7899,110.474873 C112.9009,110.474873 139.9919,136.825682 139.9919,169.03201 L139.9919,183.854644 C139.9919,216.060972 112.9009,242.41178 79.7899,242.41178" id="Fill-32" fill="#4C241C"></path>
                                <path d="M6.6389,354.328551 L6.6389,336.716278 C6.6389,297.055349 39.6939,264.903491 80.4699,264.903491 L80.4699,264.903491 C121.2459,264.903491 154.3009,297.055349 154.3009,336.716278 L154.3009,354.328551" id="Fill-34" fill="#0F446B"></path>
                                <path d="M107.0078,280.374414 L80.4318,339.508349 L53.8558,280.374414 L107.0078,280.374414 Z" id="Fill-36" fill="#FFFFFF"></path>
                                <path d="M119.1859,308.291331 L119.1859,278.743331 C119.1859,257.925113 101.8349,241.048184 80.4319,241.048184 C59.0279,241.048184 41.6779,257.925113 41.6779,278.743331 L41.6779,308.291331 L80.4319,292.788796 L119.1859,308.291331 Z" id="Fill-38" fill="#FFFFFF"></path>
                                <path d="M145.512,203.418108 C145.512,210.067332 139.971,215.456939 133.135,215.456939 C126.3,215.456939 120.758,210.067332 120.758,203.418108 C120.758,196.768884 126.3,191.379278 133.135,191.379278 C139.971,191.379278 145.512,196.768884 145.512,203.418108" id="Fill-40" fill="#B25C4B"></path>
                                <path d="M98.8953,280.882736 L80.5833,320.181828 L62.2713,280.882736 L98.8953,280.882736 Z" id="Fill-42" fill="#B25C4B"></path>
                                <path d="M40.1813,203.418108 C40.1813,210.067332 34.6403,215.456939 27.8043,215.456939 C20.9693,215.456939 15.4273,210.067332 15.4273,203.418108 C15.4273,196.768884 20.9693,191.379278 27.8043,191.379278 C34.6403,191.379278 40.1813,196.768884 40.1813,203.418108" id="Fill-44" fill="#B25C4B"></path>
                                <path d="M80.5988,292.14216 L80.5988,292.14216 C69.3658,292.14216 60.2588,283.284957 60.2588,272.357897 L60.2588,248.636236 C60.2588,237.709176 69.3658,228.851974 80.5988,228.851974 L80.5988,228.851974 C91.8318,228.851974 100.9388,237.709176 100.9388,248.636236 L100.9388,272.357897 C100.9388,283.284957 91.8318,292.14216 80.5988,292.14216" id="Fill-46" fill="#B25C4B"></path>
                                <path d="M80.497,265.334581 L80.497,265.334581 C51.323,265.334581 27.672,242.330756 27.672,213.952887 L27.672,182.015991 C27.672,153.639095 51.323,130.63527 80.497,130.63527 L80.497,130.63527 C109.671,130.63527 133.322,153.639095 133.322,182.015991 L133.322,213.952887 C133.322,242.330756 109.671,265.334581 80.497,265.334581" id="Fill-48" fill="#BF7358"></path>
                                <path d="M59.9252,189.918705 C59.9252,193.48065 56.9572,196.367557 53.2952,196.367557 C49.6332,196.367557 46.6652,193.48065 46.6652,189.918705 C46.6652,186.35676 49.6332,183.469852 53.2952,183.469852 C56.9572,183.469852 59.9252,186.35676 59.9252,189.918705" id="Fill-50" fill="#A85F48"></path>
                                <path d="M114.1982,189.918705 C114.1982,193.48065 111.2302,196.367557 107.5682,196.367557 C103.9062,196.367557 100.9382,193.48065 100.9382,189.918705 C100.9382,186.35676 103.9062,183.469852 107.5682,183.469852 C111.2302,183.469852 114.1982,186.35676 114.1982,189.918705" id="Fill-52" fill="#A85F48"></path>
                                <path d="M89.31,206.834055 L71.684,206.834055 L71.684,183.412951 L89.31,183.412951 L89.31,206.834055 Z" id="Fill-54" fill="#B25C4B"></path>
                                <path d="M107.89,214.688232 C107.89,229.386363 95.64,241.300691 80.53,241.300691 C65.419,241.300691 53.17,229.386363 53.17,214.688232" id="Fill-56" fill="#933634"></path>
                                <path d="M54.6183,223.182431 L106.4413,223.182431 C107.3663,220.512431 107.8903,217.662485 107.8903,214.688037 L53.1693,214.688037 C53.1693,217.662485 53.6933,220.512431 54.6183,223.182431" id="Fill-57" fill="#FFFFFF"></path>
                                <path d="M96.4737,236.285565 C92.7467,231.758723 87.0257,228.852363 80.5987,228.852363 L80.5987,228.852363 C74.1427,228.852363 68.4007,231.786931 64.6747,236.349762 C69.1507,239.455521 74.6127,241.300691 80.5297,241.300691 C86.4867,241.300691 91.9817,239.429259 96.4737,236.285565" id="Fill-58" fill="#AF3F3F"></path>
                                <path d="M442.533,155.872849 C422.78,155.872849 406.619,171.592292 406.619,190.805592 L406.619,196.570652 L406.619,216.701188 L406.619,292.331734 L406.62,292.331734 C426.372,292.331734 442.533,276.612292 442.533,257.398991 L442.533,251.633931 L442.533,231.503396 L442.533,155.872849 L442.533,155.872849 Z" id="Fill-59" fill="#4C241C"></path>
                                <path d="M485.6689,242.41178 L485.6689,242.41178 C452.5579,242.41178 425.4669,216.060972 425.4669,183.854644 L425.4669,169.03201 C425.4669,136.825682 452.5579,110.474873 485.6689,110.474873 L485.6689,110.474873 C518.7799,110.474873 545.8709,136.825682 545.8709,169.03201 L545.8709,183.854644 C545.8709,216.060972 518.7799,242.41178 485.6689,242.41178" id="Fill-60" fill="#4C241C"></path>
                                <path d="M551.391,203.418108 C551.391,210.067332 545.85,215.456939 539.014,215.456939 C532.179,215.456939 526.637,210.067332 526.637,203.418108 C526.637,196.768884 532.179,191.379278 539.014,191.379278 C545.85,191.379278 551.391,196.768884 551.391,203.418108" id="Fill-61" fill="#B25C4B"></path>
                                <path d="M504.7743,280.882736 L486.4623,320.181828 L468.1503,280.882736 L504.7743,280.882736 Z" id="Fill-62" fill="#B25C4B"></path>
                                <path d="M446.0603,203.418108 C446.0603,210.067332 440.5193,215.456939 433.6833,215.456939 C426.8483,215.456939 421.3063,210.067332 421.3063,203.418108 C421.3063,196.768884 426.8483,191.379278 433.6833,191.379278 C440.5193,191.379278 446.0603,196.768884 446.0603,203.418108" id="Fill-63" fill="#B25C4B"></path>
                                <path d="M486.4777,292.14216 L486.4777,292.14216 C475.2447,292.14216 466.1377,283.284957 466.1377,272.357897 L466.1377,248.636236 C466.1377,237.709176 475.2447,228.851974 486.4777,228.851974 L486.4777,228.851974 C497.7107,228.851974 506.8177,237.709176 506.8177,248.636236 L506.8177,272.357897 C506.8177,283.284957 497.7107,292.14216 486.4777,292.14216" id="Fill-64" fill="#B25C4B"></path>
                                <path d="M486.3759,265.334581 L486.3759,265.334581 C457.2019,265.334581 433.5509,242.330756 433.5509,213.952887 L433.5509,182.015991 C433.5509,153.639095 457.2019,130.63527 486.3759,130.63527 L486.3759,130.63527 C515.5499,130.63527 539.2009,153.639095 539.2009,182.015991 L539.2009,213.952887 C539.2009,242.330756 515.5499,265.334581 486.3759,265.334581" id="Fill-65" fill="#BF7358"></path>
                                <path d="M465.8041,189.918705 C465.8041,193.48065 462.8361,196.367557 459.1741,196.367557 C455.5121,196.367557 452.5441,193.48065 452.5441,189.918705 C452.5441,186.35676 455.5121,183.469852 459.1741,183.469852 C462.8361,183.469852 465.8041,186.35676 465.8041,189.918705" id="Fill-66" fill="#A85F48"></path>
                                <path d="M520.0771,189.918705 C520.0771,193.48065 517.1091,196.367557 513.4471,196.367557 C509.7851,196.367557 506.8171,193.48065 506.8171,189.918705 C506.8171,186.35676 509.7851,183.469852 513.4471,183.469852 C517.1091,183.469852 520.0771,186.35676 520.0771,189.918705" id="Fill-67" fill="#A85F48"></path>
                                <path d="M495.189,206.834055 L477.563,206.834055 L477.563,183.412951 L495.189,183.412951 L495.189,206.834055 Z" id="Fill-68" fill="#B25C4B"></path>
                                <path d="M513.769,214.688232 C513.769,229.386363 501.519,241.300691 486.409,241.300691 C471.298,241.300691 459.049,229.386363 459.049,214.688232" id="Fill-69" fill="#933634"></path>
                                <path d="M460.4973,223.182431 L512.3203,223.182431 C513.2453,220.512431 513.7693,217.662485 513.7693,214.688037 L459.0483,214.688037 C459.0483,217.662485 459.5723,220.512431 460.4973,223.182431" id="Fill-70" fill="#FFFFFF"></path>
                                <path d="M502.3527,236.285565 C498.6257,231.758723 492.9047,228.852363 486.4777,228.852363 L486.4777,228.852363 C480.0217,228.852363 474.2797,231.786931 470.5537,236.349762 C475.0297,239.455521 480.4917,241.300691 486.4087,241.300691 C492.3657,241.300691 497.8607,239.429259 502.3527,236.285565" id="Fill-71" fill="#AF3F3F"></path>
                            </g>
                        </g>
                    </g>
                </g>
            </g>
        </g>
    </g>
</svg>